<svg width="10" height="10" viewBox="0 0 10 10" fill="none" xmlns="http://www.w3.org/2000/svg">
<path fill-rule="evenodd" clip-rule="evenodd" d="M4.67038 3.43404L1.93012 0.693799C1.67105 0.434723 1.25118 0.435402 0.992808 0.693784C0.734464 0.952166 0.733723 1.37207 0.99276 1.63111L3.73463 4.37294C4.07999 4.7183 4.07999 5.28171 3.73463 5.62708L0.992801 8.3689C0.734427 8.62728 0.734427 9.04785 0.992801 9.30622C1.25117 9.5646 1.67175 9.5646 1.93012 9.30622L4.67195 6.5644C5.01731 6.21904 5.58073 6.21904 5.92609 6.5644L8.66792 9.30622C8.92695 9.56525 9.34687 9.5646 9.60524 9.30622C9.86361 9.04785 9.86427 8.62794 9.60523 8.3689L6.86341 5.62708C6.51805 5.28171 6.51805 4.7183 6.86341 4.37294L9.60524 1.63111C9.86362 1.37274 9.86362 0.952162 9.60524 0.693788C9.34687 0.435415 8.92629 0.435415 8.66792 0.693788L5.92765 3.43406C5.58198 3.78484 5.01604 3.78483 4.67038 3.43404Z" fill="#DA3633"/>
</svg>
