<svg width="10" height="8" viewBox="0 0 10 8" fill="none" xmlns="http://www.w3.org/2000/svg">
<path fill-rule="evenodd" clip-rule="evenodd" d="M9.02285 0.455715C8.84789 0.462824 8.68529 0.534933 8.5674 0.657364L8.56366 0.661246C7.50699 1.71983 6.60153 2.67081 5.69718 3.6207C5.02344 4.32836 4.35031 5.03539 3.61567 5.78581L3.42071 5.98496L1.38684 4.2677C1.11044 4.03242 0.693679 4.06602 0.457194 4.34613L0.456379 4.34706C0.221089 4.62347 0.254723 5.04022 0.534828 5.2767L0.544542 5.2849L0.548012 5.28838L3.03454 7.39312C3.2953 7.61253 3.68298 7.59717 3.92633 7.35664C4.95552 6.32577 5.83612 5.39805 6.714 4.4732L6.72038 4.46648C7.60019 3.53959 8.47771 2.61525 9.49583 1.59712L9.49866 1.5943C9.76212 1.33777 9.76867 0.921005 9.51636 0.661873L9.51193 0.657329C9.38541 0.521765 9.2067 0.449032 9.02285 0.455715Z" fill="#38A046"/>
</svg>
