<svg width="15" height="15" viewBox="0 0 15 15" fill="none" xmlns="http://www.w3.org/2000/svg">
<path fill-rule="evenodd" clip-rule="evenodd" d="M13.0778 0.572567C12.3144 -0.190856 11.0806 -0.190856 10.3172 0.572567L0.876687 10.0131C0.781259 10.1085 0.713097 10.238 0.685832 10.3744L0.0110209 14.1983C-0.0298768 14.4164 0.045102 14.6413 0.201876 14.7981C0.35865 14.9549 0.583588 15.0231 0.801708 14.989L4.62564 14.3142C4.76196 14.2869 4.89147 14.2256 4.9869 14.1233L14.4274 4.68278C15.1909 3.91936 15.1909 2.68561 14.4274 1.92219L13.0778 0.572567ZM11.2783 1.53366C11.5101 1.30191 11.885 1.30191 12.1099 1.53366L13.4595 2.88328C13.6913 3.11504 13.6913 3.48993 13.4595 3.71487L13.2687 3.90572L11.0875 1.72452L11.2783 1.53366ZM10.1264 2.69243L12.3076 4.87363L4.50976 12.6783L2.32855 10.4971L10.1264 2.69243ZM1.52423 13.4758L3.09879 13.1963L1.8037 11.9012L1.52423 13.4758Z" fill="white"/>
</svg>
