<svg width="10" height="10" viewBox="0 0 10 10" fill="none" xmlns="http://www.w3.org/2000/svg">
<path fill-rule="evenodd" clip-rule="evenodd" d="M4.32333 4.32334H1.17667C0.802803 4.32334 0.5 4.62615 0.5 5C0.5 5.37386 0.802814 5.67668 1.17667 5.67668H4.32333V8.82334C4.32333 9.1972 4.62614 9.5 5 9.5C5.37386 9.5 5.67667 9.1972 5.67667 8.82334V5.67668H8.82333C9.19719 5.67668 9.5 5.37386 9.5 5C9.5 4.62615 9.1972 4.32334 8.82333 4.32334H5.67667V1.17668C5.67667 0.802814 5.37385 0.5 5 0.5C4.62615 0.5 4.32333 0.802813 4.32333 1.17668V4.32334Z" fill="white"/>
</svg>
