<svg width="10" height="14" viewBox="0 0 10 14" fill="none" xmlns="http://www.w3.org/2000/svg">
<path fill-rule="evenodd" clip-rule="evenodd" d="M9.32834 4.40172C9.03938 4.37777 8.79595 4.58652 8.77304 4.85869L8.16791 11.9751C8.12812 12.4417 7.72604 12.8 7.25679 12.8H2.74304C2.27379 12.8 1.87172 12.4417 1.83193 11.9751L1.22683 4.85905C1.20334 4.58627 0.958115 4.37734 0.671925 4.40168C0.385375 4.42511 0.178636 4.67007 0.201708 4.94116L0.806821 12.0574C0.88947 13.0303 1.73798 13.8 2.74304 13.8H7.25679C8.26186 13.8 9.11037 13.0303 9.19302 12.0574L9.79813 4.94117C9.8212 4.67009 9.61489 4.42514 9.32834 4.40172ZM2.4854 2.30001H0.714263C0.426438 2.30001 0.199987 2.52768 0.199987 2.80001C0.199987 3.07234 0.426438 3.30001 0.714263 3.30001H9.28558C9.5734 3.30001 9.79985 3.07234 9.79985 2.80001C9.79985 2.52768 9.5734 2.30001 9.28558 2.30001H7.51443L6.9168 0.543C6.84776 0.340253 6.65256 0.200012 6.42847 0.200012H3.57137C3.34728 0.200012 3.15208 0.340253 3.08304 0.543L2.4854 2.30001ZM3.56862 2.30001L3.94294 1.20001H6.05689L6.43122 2.30001H3.56862ZM6.94275 5.60001C6.94275 5.32768 6.7163 5.10001 6.42847 5.10001C6.14065 5.10001 5.91419 5.32768 5.91419 5.60001V10.5C5.91419 10.7723 6.14065 11 6.42847 11C6.7163 11 6.94275 10.7723 6.94275 10.5V5.60001ZM3.05709 5.60001V10.5C3.05709 10.7723 3.28354 11 3.57137 11C3.85919 11 4.08564 10.7723 4.08564 10.5V5.60001C4.08564 5.32768 3.85919 5.10001 3.57137 5.10001C3.28354 5.10001 3.05709 5.32768 3.05709 5.60001Z" fill="#DA3633"/>
</svg>
